#define 3ee936dc6cfc4f13a68477baa617067fBDuN9zyGQpgAQwlA_width 8
#define 3ee936dc6cfc4f13a68477baa617067fBDuN9zyGQpgAQwlA_height 8
static char 3ee936dc6cfc4f13a68477baa617067fBDuN9zyGQpgAQwlA_bits[] = {
  0x03, 0xF3, 0x08, 0x08, 0x08, 0x08, 0x08, 0xF0, };
