#define 09aca1729d0f4a56e6c0a0c0f5ca8b1bL4j8iq1GjEy8RNLs_width 8
#define 09aca1729d0f4a56e6c0a0c0f5ca8b1bL4j8iq1GjEy8RNLs_height 8
static char 09aca1729d0f4a56e6c0a0c0f5ca8b1bL4j8iq1GjEy8RNLs_bits[] = {
  0x83, 0x43, 0x20, 0x10, 0x08, 0x04, 0xC2, 0xC1, };
